HIERARCHY
ROOT Hips
{
  OFFSET 80.6507 87.1455 23.1733
  CHANNELS 6 Xposition Yposition Zposition Zrotation Xrotation Yrotation
  JOINT spine
  {
    OFFSET 0 6.84637 0.3937
    CHANNELS 3 Zrotation Xrotation Yrotation
    JOINT spine1
    {
      OFFSET 0 9.49621 0
      CHANNELS 3 Zrotation Xrotation Yrotation
      JOINT spine2
      {
        OFFSET 0 9.09909 0
        CHANNELS 3 Zrotation Xrotation Yrotation
        JOINT Neck
        {
          OFFSET 0 23.3612 1.11378
          CHANNELS 3 Zrotation Xrotation Yrotation
          JOINT Head
          {
            OFFSET 0 7.05802 0
            CHANNELS 3 Zrotation Xrotation Yrotation
            End Site
            {
              OFFSET 0 17.0844 -5.63419
            }
          }
        }
        JOINT RightShoulder
        {
          OFFSET -3.83136 9.82631 -0.533491
          CHANNELS 3 Zrotation Xrotation Yrotation
          JOINT RightArm
          {
            OFFSET 0 12.8881 0
            CHANNELS 3 Zrotation Xrotation Yrotation
            JOINT RightArmRoll
            {
              OFFSET 0 6.50617 0
              CHANNELS 3 Zrotation Xrotation Yrotation
              JOINT RightForeArm
              {
                OFFSET 0 18.9501 0
                CHANNELS 3 Zrotation Xrotation Yrotation
                JOINT RightForeArmRoll
                {
                  OFFSET 0 7.30092 0
                  CHANNELS 3 Zrotation Xrotation Yrotation
                  JOINT RightHand
                  {
                    OFFSET 0 14.6514 0
                    CHANNELS 3 Zrotation Xrotation Yrotation
                    End Site
                    {
                      OFFSET 0 0 0
                    }
                  }
                }
              }
            }
          }
        }
        JOINT LeftShoulder
        {
          OFFSET 3.83136 9.82631 -0.533491
          CHANNELS 3 Zrotation Xrotation Yrotation
          JOINT LeftArm
          {
            OFFSET 0 12.8881 0
            CHANNELS 3 Zrotation Xrotation Yrotation
            JOINT LeftArmRoll
            {
              OFFSET 0 6.50617 0
              CHANNELS 3 Zrotation Xrotation Yrotation
              JOINT LeftForeArm
              {
                OFFSET 0 18.9501 0
                CHANNELS 3 Zrotation Xrotation Yrotation
                JOINT LeftForeArmRoll
                {
                  OFFSET 0 7.30092 0
                  CHANNELS 3 Zrotation Xrotation Yrotation
                  JOINT LeftHand
                  {
                    OFFSET 0 14.6514 0
                    CHANNELS 3 Zrotation Xrotation Yrotation
                    End Site
                    {
                      OFFSET 0 0 0
                    }
                  }
                }
              }
            }
          }
        }
      }
    }
  }
  JOINT RightUpLeg
  {
    OFFSET -6.06837 -1.11278 -0.933477
    CHANNELS 3 Zrotation Xrotation Yrotation
    JOINT RightUpLegRoll
    {
      OFFSET 0 17.1796 0
      CHANNELS 3 Zrotation Xrotation Yrotation
      JOINT RightLeg
      {
        OFFSET 0 -21.2743 0
        CHANNELS 3 Zrotation Xrotation Yrotation
        JOINT RightLegRoll
        {
          OFFSET 0 21.3439 0
          CHANNELS 3 Zrotation Xrotation Yrotation
          JOINT RightFoot
          {
            OFFSET 0 17.7652 0
            CHANNELS 3 Zrotation Xrotation Yrotation
            JOINT RightToeBase
            {
              OFFSET 0 14.8508 0
              CHANNELS 3 Zrotation Xrotation Yrotation
              End Site
              {
                OFFSET 0.0062947 7.19213 -0.829005
              }
            }
          }
        }
      }
    }
  }
  JOINT LeftUpLeg
  {
    OFFSET 6.06837 -1.11278 -0.933477
    CHANNELS 3 Zrotation Xrotation Yrotation
    JOINT LeftUpLegRoll
    {
      OFFSET 0 17.1797 0
      CHANNELS 3 Zrotation Xrotation Yrotation
      JOINT LeftLeg
      {
        OFFSET 0 21.2742 0
        CHANNELS 3 Zrotation Xrotation Yrotation
        JOINT LeftLegRoll
        {
          OFFSET 0 21.5412 0
          CHANNELS 3 Zrotation Xrotation Yrotation
          JOINT LeftFoot
          {
            OFFSET 0 17.5679 0
            CHANNELS 3 Zrotation Xrotation Yrotation
            JOINT LeftToeBase
            {
              OFFSET 0 14.8508 0
              CHANNELS 3 Zrotation Xrotation Yrotation
              End Site
              {
                OFFSET -0.0282102 7.19214 -0.829005
              }
            }
          }
        }
      }
    }
  }
}
MOTION
Frames: 6
Frame Time: 0.00208333
47.2524 91.1918 9.48051 0.483952 0.879542 -4.10535 0.443925 -1.00453 0.124444 0.91151 1.99991 0.200304 0.909947 3.64486 0.182877 -10.9175 34.2058 14.7981 -5.3101 -4.70951 8.90742 67.9215 12.2411 5.18144 104.706 12.7004 -43.0735 1.94456e-005 -1.72031e-006 -3.99994e-006 -31.9412 83.9318 25.4826 -3.24133e-006 -2.34792e-006 -2.99999 8.03009 -4.95109 0.697569 -64.5239 -3.50557 2.59765 -114.702 6.71918 54.0116 2.06083e-007 -9.42068e-007 -8.48377e-006 148.718 76.9022 -133.311 1.05616e-006 6.0129e-007 3.00589 -8.03071 -4.95103 -0.697674 -179.124 7.57659 -2.07904 180 7.01576e-015 179.059 178.097 9.3439 179.814 2.56308e-006 -3.51979e-006 0.0639125 -17.8336 66.8628 18.6569 8.13334 25.2328 -3.4864 -171.017 10.5145 -2.89714 4.54188e-006 -4.6773e-006 -1.1138 -1.2188 -19.5982 0.493278 -2.32865e-006 -4.95e-006 -0.27623 18.5446 67.8484 -19.4038 -8.13649 25.2327 3.48774 
47.2479 91.1887 9.48833 0.502628 0.86963 -4.12302 0.443902 -1.00173 0.126924 0.909576 2.00513 0.205213 0.907955 3.65008 0.187986 -10.8657 34.149 14.8096 -5.38412 -4.72835 8.93763 67.929 12.2262 5.17205 104.728 12.5729 -43.0841 1.94456e-005 -1.72031e-006 -3.99994e-006 -33.3473 84.0072 26.7862 -3.24133e-006 -2.34792e-006 -2.99999 8.03009 -4.95109 0.697569 -64.5373 -3.50583 2.59885 -114.923 6.76575 53.6703 2.06083e-007 -9.42068e-007 -8.48377e-006 148.976 77.0174 -133.704 1.05616e-006 6.0129e-007 3.00589 -8.03071 -4.95103 -0.697674 -179.141 7.57138 -2.06894 180 7.01576e-015 179.059 178.099 9.34829 179.814 2.56308e-006 -3.51979e-006 0.0636295 -17.8262 66.853 18.6489 8.13334 25.2328 -3.4864 -171.032 10.5871 -2.89486 4.54188e-006 -4.6773e-006 -1.1138 -1.2134 -19.7377 0.498165 -2.32865e-006 -4.95e-006 -0.278491 18.5479 67.8524 -19.4073 -8.13649 25.2327 3.48774 
47.2518 91.1907 9.49892 0.521101 0.859393 -4.1399 0.443867 -0.998776 0.129464 0.907554 2.01064 0.210264 0.905872 3.65559 0.193245 -10.8091 34.0911 14.8181 -5.46029 -4.74559 8.96703 67.9385 12.2104 5.16178 104.747 12.4444 -43.0943 1.94456e-005 -1.72031e-006 -3.99994e-006 -34.7842 84.0794 28.1204 -3.24133e-006 -2.34792e-006 -2.99999 8.03009 -4.95109 0.697569 -64.5502 -3.50411 2.59893 -115.153 6.80971 53.3152 2.06083e-007 -9.42068e-007 -8.48377e-006 149.255 77.1325 -134.12 1.05616e-006 6.0129e-007 3.00589 -8.03071 -4.95103 -0.697674 -179.158 7.56584 -2.05862 180 7.01576e-015 179.059 178.101 9.35281 179.814 2.56308e-006 -3.51979e-006 0.0633599 -17.8189 66.8433 18.6409 8.13334 25.2328 -3.4864 -171.048 10.6594 -2.89259 4.54188e-006 -4.6773e-006 -1.11379 -1.20789 -19.877 0.503085 -2.32865e-006 -4.95e-006 -0.280738 18.551 67.8562 -19.4108 -8.13649 25.2327 3.48774 
47.2496 91.1938 9.50505 0.539429 0.84893 -4.15623 0.443824 -0.995718 0.132045 0.905468 2.01635 0.215415 0.903725 3.66131 0.198609 -10.749 34.0326 14.8245 -5.53797 -4.76171 8.99586 67.9493 12.1941 5.1509 104.766 12.3152 -43.1041 1.94456e-005 -1.72031e-006 -3.99994e-006 -36.2522 84.1483 29.4854 -3.24133e-006 -2.34792e-006 -2.99999 8.03009 -4.95109 0.697569 -64.5628 -3.50101 2.59824 -115.389 6.85162 52.9505 2.06083e-007 -9.42068e-007 -8.48377e-006 149.552 77.2473 -134.555 1.05616e-006 6.0129e-007 3.00589 -8.03071 -4.95103 -0.697674 -179.175 7.56008 -2.04814 180 7.01576e-015 179.059 178.103 9.35743 179.813 2.56308e-006 -3.51979e-006 0.0630996 -17.8116 66.8337 18.633 8.13334 25.2328 -3.4864 -171.063 10.7316 -2.89032 4.54188e-006 -4.6773e-006 -1.11379 -1.20231 -20.0163 0.508031 -2.32865e-006 -4.95e-006 -0.282974 18.5541 67.86 -19.4142 -8.13649 25.2327 3.48774 
47.2466 91.1921 9.51319 0.557674 0.838338 -4.17223 0.443775 -0.992599 0.134651 0.903346 2.02218 0.220623 0.901542 3.66714 0.204032 -10.6869 33.9737 14.8297 -5.61651 -4.77719 9.02437 67.9608 12.1775 5.13966 104.783 12.1857 -43.1139 1.94456e-005 -1.72031e-006 -3.99994e-006 -37.7513 84.2139 30.8813 -3.24133e-006 -2.34792e-006 -2.99999 8.03009 -4.95109 0.697569 -64.5752 -3.49712 2.5971 -115.629 6.89206 52.5802 2.06083e-007 -9.42068e-007 -8.48377e-006 149.862 77.3615 -135.004 1.05616e-006 6.0129e-007 3.00589 -8.03071 -4.95103 -0.697674 -179.192 7.5542 -2.03756 180 7.01576e-015 179.059 178.105 9.3621 179.813 2.56308e-006 -3.51979e-006 0.0628447 -17.8043 66.8242 18.6251 8.13334 25.2328 -3.4864 -171.078 10.8037 -2.88805 4.54188e-006 -4.6773e-006 -1.11379 -1.19667 -20.1556 0.512997 -2.32865e-006 -4.95e-006 -0.285204 18.5572 67.8637 -19.4175 -8.13649 25.2327 3.48774 
47.2449 91.1943 9.52044 0.575892 0.827713 -4.18815 0.443726 -0.989464 0.137262 0.901214 2.02804 0.225845 0.899349 3.67299 0.209471 -10.6243 33.9147 14.8346 -5.69524 -4.79251 9.05279 67.9725 12.1607 5.12834 104.8 12.0562 -43.1238 1.94456e-005 -1.72031e-006 -3.99994e-006 -39.2815 84.276 32.3081 -3.24133e-006 -2.34792e-006 -2.99999 8.03009 -4.95109 0.697569 -64.5876 -3.49303 2.59584 -115.869 6.93169 52.2085 2.06083e-007 -9.42068e-007 -8.48377e-006 150.182 77.4749 -135.462 1.05616e-006 6.0129e-007 3.00589 -8.03071 -4.95103 -0.697674 -179.209 7.54827 -2.02697 180 7.01576e-015 179.059 178.107 9.36679 179.813 2.56308e-006 -3.51979e-006 0.0625911 -17.7971 66.8147 18.6172 8.13334 25.2328 -3.4864 -171.093 10.8757 -2.88578 4.54188e-006 -4.6773e-006 -1.11378 -1.19099 -20.2948 0.517977 -2.32865e-006 -4.95e-006 -0.287433 18.5602 67.8674 -19.4209 -8.13649 25.2327 3.48774 
